<svg width="16" height="16" viewBox="0 0 16 16" fill="none" xmlns="http://www.w3.org/2000/svg">
    <path d="M6.0879 5.61739C6.01801 5.82697 5.8207 5.96848 5.59834 5.96848H1.01667C0.514776 5.96848 0.308628 6.60806 0.717269 6.89737L4.40697 9.50964C4.59112 9.64002 4.66822 9.87432 4.59711 10.0875L3.18369 14.3247C3.0269 14.7947 3.56652 15.19 3.97258 14.9026L7.70066 12.2636C7.87982 12.1368 8.12028 12.1368 8.29942 12.2637L12.0265 14.9025C12.4326 15.19 12.9722 14.7948 12.8155 14.3248L11.4029 10.0874C11.3318 9.87429 11.4089 9.64004 11.5931 9.50968L15.2827 6.89737C15.6914 6.60805 15.4852 5.96848 14.9833 5.96848H10.4018C10.1794 5.96848 9.98209 5.82697 9.91221 5.61739L8.4896 1.35109C8.33351 0.882972 7.6666 0.88297 7.5105 1.35109L6.0879 5.61739Z" stroke="currentColor" stroke-width="1"/>
</svg>
